<?xml version="1.0" standalone="no"?><!DOCTYPE svg PUBLIC "-//W3C//DTD SVG 1.1//EN" "http://www.w3.org/Graphics/SVG/1.1/DTD/svg11.dtd"><svg t="1502693682773" class="icon" style="" viewBox="0 0 1024 1024" version="1.1" xmlns="http://www.w3.org/2000/svg" p-id="8697" xmlns:xlink="http://www.w3.org/1999/xlink" width="200" height="200"><defs><style type="text/css"></style></defs><path d="M512 102.4c225.28 0 409.6 184.32 409.6 409.6s-184.32 409.6-409.6 409.6S102.4 737.28 102.4 512 286.72 102.4 512 102.4m0-81.92C239.616 20.48 20.48 239.616 20.48 512s219.136 491.52 491.52 491.52 491.52-219.136 491.52-491.52S784.384 20.48 512 20.48z" fill="#FF7700" p-id="8698"></path><path d="M512 600.064c-28.672 0-51.2-22.528-51.2-51.2V288.768c0-28.672 22.528-51.2 51.2-51.2s51.2 22.528 51.2 51.2v260.096c0 28.672-22.528 51.2-51.2 51.2zM512 751.616c-28.672 0-51.2-22.528-51.2-51.2v-2.048c0-28.672 22.528-51.2 51.2-51.2s51.2 22.528 51.2 51.2v2.048c0 28.672-22.528 51.2-51.2 51.2z" fill="#FF7700" p-id="8699"></path></svg>